<svg id="Calque_1" data-name="Calque 1" xmlns="http://www.w3.org/2000/svg" xmlns:xlink="http://www.w3.org/1999/xlink" viewBox="0 0 511.6 202.5"><defs><style>.cls-1{fill:url(#Dégradé_symbole_RGB);}.cls-2{fill:#1a003b;}</style><linearGradient id="Dégradé_symbole_RGB" x1="198.36" y1="58.9" x2="511.63" y2="58.9" gradientUnits="userSpaceOnUse"><stop offset="0" stop-color="#fbf315"/><stop offset="0.06" stop-color="#faef16"/><stop offset="0.13" stop-color="#f5e219"/><stop offset="0.2" stop-color="#eecc1d"/><stop offset="0.27" stop-color="#e3ad24"/><stop offset="0.34" stop-color="#d6872c"/><stop offset="0.38" stop-color="#d07430"/><stop offset="0.64" stop-color="#515793"/><stop offset="0.98" stop-color="#1a003b"/></linearGradient></defs><title>Eramet_Logo</title><path class="cls-1" d="M198.4,71.8s11.2,6.8,26.6,26.3,28.5,19.7,36.3,19.7,15.6-1.9,36.4-18.6S401.6-1.4,511.6,9.9c0,0-22-9.9-57.4-9.9-27.5,0-63.1,5.8-102.7,26.8C261,74.8,254.2,86.3,198.4,71.8Z"/><path class="cls-2" d="M10.3,162.3a24.2,24.2,0,0,1,46.6,0Zm23.3-27a33.6,33.6,0,1,0,26.7,54,4.8,4.8,0,0,0,1-2.9,4.7,4.7,0,0,0-4.7-4.7,4.4,4.4,0,0,0-3.8,2.1A24.3,24.3,0,0,1,9.5,171.7h53a4.6,4.6,0,0,0,4.6-4.7A33.6,33.6,0,0,0,33.6,135.3Z"/><path class="cls-2" d="M110,144.7a16.1,16.1,0,0,0-16.1,16.1v37.1a4.7,4.7,0,0,1-4.7,4.6h0a4.7,4.7,0,0,1-4.7-4.6V160.8A25.5,25.5,0,0,1,110,135.3a4.7,4.7,0,1,1,0,9.4Z"/><path class="cls-2" d="M179.2,168.9A24.3,24.3,0,1,1,155,144.7,24.2,24.2,0,0,1,179.2,168.9Zm4.7-33.6a4.7,4.7,0,0,0-4.7,4.7v5.7a33.6,33.6,0,1,0,0,46.4v5.7a4.7,4.7,0,1,0,9.4,0V140A4.7,4.7,0,0,0,183.9,135.3Z"/><path class="cls-2" d="M256.7,186.5a13.4,13.4,0,0,0,12-7.4L285,148.5,298,199a4.8,4.8,0,0,0,5.7,3.4h0a4.8,4.8,0,0,0,3.4-5.7l-14.6-56.4a7.1,7.1,0,0,0-13.1-1.2l-18.9,35.5c-.8,1.4-1.7,2.6-3.8,2.6a3.9,3.9,0,0,1-3.8-2.6c-.8-1.3-19-35.5-19-35.5a6.9,6.9,0,0,0-6.2-3.8,7.1,7.1,0,0,0-6.8,5l-14.6,56.4a4.6,4.6,0,0,0,3.3,5.7h0a4.7,4.7,0,0,0,5.7-3.4l13.1-50.5,16.2,30.6A13.5,13.5,0,0,0,256.7,186.5Z"/><path class="cls-2" d="M329.1,162.3a24.3,24.3,0,0,1,46.7,0Zm23.4-27a33.6,33.6,0,1,0,26.7,54,4.8,4.8,0,0,0,1-2.9,4.7,4.7,0,0,0-8.6-2.6,24.2,24.2,0,0,1-43.2-12.1h52.9A4.7,4.7,0,0,0,386,167,33.6,33.6,0,0,0,352.5,135.3Z"/><path class="cls-2" d="M451.9,135.3H394a4.7,4.7,0,0,0,0,9.4h24.3v53.2a4.7,4.7,0,0,0,9.3,0V144.7h24.3a4.7,4.7,0,1,0,0-9.4Z"/></svg>